<mxfile host="app.diagrams.net" agent="Mozilla/5.0 (Windows NT 10.0; Win64; x64) AppleWebKit/537.36 (KHTML, like Gecko) Chrome/124.0.0.0 Safari/537.36 Edg/124.0.0.0" version="24.7.6">
  <diagram name="Page-1" id="bd83a815-5ea8-2e97-e5ec-87c9f400f2fa">
    <mxGraphModel dx="1434" dy="751" grid="1" gridSize="10" guides="1" tooltips="1" connect="1" arrows="1" fold="1" page="1" pageScale="1.5" pageWidth="827" pageHeight="1169" background="#000000" math="0" shadow="0">
      <root>
        <mxCell id="0" style=";html=1;" />
        <mxCell id="1" style=";html=1;" parent="0" />
        <mxCell id="JXNqIlLPApDgVnP79aCE-2" value="" style="shape=table;startSize=0;container=1;collapsible=0;childLayout=tableLayout;fillStyle=auto;strokeColor=#000000;" parent="1" vertex="1">
          <mxGeometry x="220" y="110" width="310" height="310" as="geometry" />
        </mxCell>
        <mxCell id="JXNqIlLPApDgVnP79aCE-3" value="" style="shape=tableRow;horizontal=0;startSize=0;swimlaneHead=0;swimlaneBody=0;strokeColor=#000000;top=0;left=0;bottom=0;right=0;collapsible=0;dropTarget=0;fillColor=none;points=[[0,0.5],[1,0.5]];portConstraint=eastwest;" parent="JXNqIlLPApDgVnP79aCE-2" vertex="1">
          <mxGeometry width="310" height="28" as="geometry" />
        </mxCell>
        <mxCell id="JXNqIlLPApDgVnP79aCE-4" value="" style="shape=partialRectangle;html=1;whiteSpace=wrap;connectable=0;strokeColor=#000000;overflow=hidden;fillColor=#000000;top=0;left=0;bottom=0;right=0;pointerEvents=1;fontColor=#FFFFFF;" parent="JXNqIlLPApDgVnP79aCE-3" vertex="1">
          <mxGeometry width="31" height="28" as="geometry">
            <mxRectangle width="31" height="28" as="alternateBounds" />
          </mxGeometry>
        </mxCell>
        <mxCell id="JXNqIlLPApDgVnP79aCE-5" value="Firm" style="shape=partialRectangle;html=1;whiteSpace=wrap;connectable=0;strokeColor=#000000;overflow=hidden;fillColor=#000000;top=0;left=0;bottom=0;right=0;pointerEvents=1;rowspan=1;colspan=9;fontColor=#FFFFFF;" parent="JXNqIlLPApDgVnP79aCE-3" vertex="1">
          <mxGeometry x="31" width="279" height="28" as="geometry">
            <mxRectangle width="31" height="28" as="alternateBounds" />
          </mxGeometry>
        </mxCell>
        <mxCell id="JXNqIlLPApDgVnP79aCE-6" value="" style="shape=partialRectangle;html=1;whiteSpace=wrap;connectable=0;strokeColor=inherit;overflow=hidden;fillColor=none;top=0;left=0;bottom=0;right=0;pointerEvents=1;" parent="JXNqIlLPApDgVnP79aCE-3" vertex="1" visible="0">
          <mxGeometry x="62" width="31" height="28" as="geometry">
            <mxRectangle width="31" height="28" as="alternateBounds" />
          </mxGeometry>
        </mxCell>
        <mxCell id="JXNqIlLPApDgVnP79aCE-7" value="" style="shape=partialRectangle;html=1;whiteSpace=wrap;connectable=0;strokeColor=inherit;overflow=hidden;fillColor=none;top=0;left=0;bottom=0;right=0;pointerEvents=1;" parent="JXNqIlLPApDgVnP79aCE-3" vertex="1" visible="0">
          <mxGeometry x="93" width="31" height="28" as="geometry">
            <mxRectangle width="31" height="28" as="alternateBounds" />
          </mxGeometry>
        </mxCell>
        <mxCell id="JXNqIlLPApDgVnP79aCE-8" value="" style="shape=partialRectangle;html=1;whiteSpace=wrap;connectable=0;strokeColor=inherit;overflow=hidden;fillColor=none;top=0;left=0;bottom=0;right=0;pointerEvents=1;" parent="JXNqIlLPApDgVnP79aCE-3" vertex="1" visible="0">
          <mxGeometry x="124" width="31" height="28" as="geometry">
            <mxRectangle width="31" height="28" as="alternateBounds" />
          </mxGeometry>
        </mxCell>
        <mxCell id="JXNqIlLPApDgVnP79aCE-9" value="" style="shape=partialRectangle;html=1;whiteSpace=wrap;connectable=0;strokeColor=inherit;overflow=hidden;fillColor=none;top=0;left=0;bottom=0;right=0;pointerEvents=1;" parent="JXNqIlLPApDgVnP79aCE-3" vertex="1" visible="0">
          <mxGeometry x="155" width="31" height="28" as="geometry">
            <mxRectangle width="31" height="28" as="alternateBounds" />
          </mxGeometry>
        </mxCell>
        <mxCell id="JXNqIlLPApDgVnP79aCE-10" value="" style="shape=partialRectangle;html=1;whiteSpace=wrap;connectable=0;strokeColor=inherit;overflow=hidden;fillColor=none;top=0;left=0;bottom=0;right=0;pointerEvents=1;" parent="JXNqIlLPApDgVnP79aCE-3" vertex="1" visible="0">
          <mxGeometry x="186" width="31" height="28" as="geometry">
            <mxRectangle width="31" height="28" as="alternateBounds" />
          </mxGeometry>
        </mxCell>
        <mxCell id="JXNqIlLPApDgVnP79aCE-11" value="" style="shape=partialRectangle;html=1;whiteSpace=wrap;connectable=0;strokeColor=inherit;overflow=hidden;fillColor=none;top=0;left=0;bottom=0;right=0;pointerEvents=1;" parent="JXNqIlLPApDgVnP79aCE-3" vertex="1" visible="0">
          <mxGeometry x="217" width="31" height="28" as="geometry">
            <mxRectangle width="31" height="28" as="alternateBounds" />
          </mxGeometry>
        </mxCell>
        <mxCell id="JXNqIlLPApDgVnP79aCE-12" value="" style="shape=partialRectangle;html=1;whiteSpace=wrap;connectable=0;strokeColor=inherit;overflow=hidden;fillColor=none;top=0;left=0;bottom=0;right=0;pointerEvents=1;" parent="JXNqIlLPApDgVnP79aCE-3" vertex="1" visible="0">
          <mxGeometry x="248" width="31" height="28" as="geometry">
            <mxRectangle width="31" height="28" as="alternateBounds" />
          </mxGeometry>
        </mxCell>
        <mxCell id="JXNqIlLPApDgVnP79aCE-13" value="" style="shape=partialRectangle;html=1;whiteSpace=wrap;connectable=0;strokeColor=inherit;overflow=hidden;fillColor=none;top=0;left=0;bottom=0;right=0;pointerEvents=1;" parent="JXNqIlLPApDgVnP79aCE-3" vertex="1" visible="0">
          <mxGeometry x="279" width="31" height="28" as="geometry">
            <mxRectangle width="31" height="28" as="alternateBounds" />
          </mxGeometry>
        </mxCell>
        <mxCell id="JXNqIlLPApDgVnP79aCE-14" value="" style="shape=tableRow;horizontal=0;startSize=0;swimlaneHead=0;swimlaneBody=0;strokeColor=#000000;top=0;left=0;bottom=0;right=0;collapsible=0;dropTarget=0;fillColor=none;points=[[0,0.5],[1,0.5]];portConstraint=eastwest;" parent="JXNqIlLPApDgVnP79aCE-2" vertex="1">
          <mxGeometry y="28" width="310" height="28" as="geometry" />
        </mxCell>
        <mxCell id="JXNqIlLPApDgVnP79aCE-15" value="" style="shape=partialRectangle;html=1;whiteSpace=wrap;connectable=0;strokeColor=#000000;overflow=hidden;fillColor=#000000;top=0;left=0;bottom=0;right=0;pointerEvents=1;fontColor=#FFFFFF;" parent="JXNqIlLPApDgVnP79aCE-14" vertex="1">
          <mxGeometry width="31" height="28" as="geometry">
            <mxRectangle width="31" height="28" as="alternateBounds" />
          </mxGeometry>
        </mxCell>
        <mxCell id="JXNqIlLPApDgVnP79aCE-16" value="A" style="shape=partialRectangle;html=1;whiteSpace=wrap;connectable=0;strokeColor=#000000;overflow=hidden;fillColor=#000000;top=0;left=0;bottom=0;right=0;pointerEvents=1;fontColor=#FFFFFF;" parent="JXNqIlLPApDgVnP79aCE-14" vertex="1">
          <mxGeometry x="31" width="31" height="28" as="geometry">
            <mxRectangle width="31" height="28" as="alternateBounds" />
          </mxGeometry>
        </mxCell>
        <mxCell id="JXNqIlLPApDgVnP79aCE-17" value="B" style="shape=partialRectangle;html=1;whiteSpace=wrap;connectable=0;strokeColor=#000000;overflow=hidden;fillColor=#000000;top=0;left=0;bottom=0;right=0;pointerEvents=1;fontColor=#FFFFFF;" parent="JXNqIlLPApDgVnP79aCE-14" vertex="1">
          <mxGeometry x="62" width="31" height="28" as="geometry">
            <mxRectangle width="31" height="28" as="alternateBounds" />
          </mxGeometry>
        </mxCell>
        <mxCell id="JXNqIlLPApDgVnP79aCE-18" value="C" style="shape=partialRectangle;html=1;whiteSpace=wrap;connectable=0;strokeColor=#000000;overflow=hidden;fillColor=#000000;top=0;left=0;bottom=0;right=0;pointerEvents=1;fontColor=#FFFFFF;" parent="JXNqIlLPApDgVnP79aCE-14" vertex="1">
          <mxGeometry x="93" width="31" height="28" as="geometry">
            <mxRectangle width="31" height="28" as="alternateBounds" />
          </mxGeometry>
        </mxCell>
        <mxCell id="JXNqIlLPApDgVnP79aCE-19" value="D" style="shape=partialRectangle;html=1;whiteSpace=wrap;connectable=0;strokeColor=#000000;overflow=hidden;fillColor=#000000;top=0;left=0;bottom=0;right=0;pointerEvents=1;fontColor=#FFFFFF;" parent="JXNqIlLPApDgVnP79aCE-14" vertex="1">
          <mxGeometry x="124" width="31" height="28" as="geometry">
            <mxRectangle width="31" height="28" as="alternateBounds" />
          </mxGeometry>
        </mxCell>
        <mxCell id="JXNqIlLPApDgVnP79aCE-20" value="E" style="shape=partialRectangle;html=1;whiteSpace=wrap;connectable=0;strokeColor=#000000;overflow=hidden;fillColor=#000000;top=0;left=0;bottom=0;right=0;pointerEvents=1;fontColor=#FFFFFF;" parent="JXNqIlLPApDgVnP79aCE-14" vertex="1">
          <mxGeometry x="155" width="31" height="28" as="geometry">
            <mxRectangle width="31" height="28" as="alternateBounds" />
          </mxGeometry>
        </mxCell>
        <mxCell id="JXNqIlLPApDgVnP79aCE-21" value="F" style="shape=partialRectangle;html=1;whiteSpace=wrap;connectable=0;strokeColor=#000000;overflow=hidden;fillColor=#000000;top=0;left=0;bottom=0;right=0;pointerEvents=1;fontColor=#FFFFFF;" parent="JXNqIlLPApDgVnP79aCE-14" vertex="1">
          <mxGeometry x="186" width="31" height="28" as="geometry">
            <mxRectangle width="31" height="28" as="alternateBounds" />
          </mxGeometry>
        </mxCell>
        <mxCell id="JXNqIlLPApDgVnP79aCE-22" value="G" style="shape=partialRectangle;html=1;whiteSpace=wrap;connectable=0;strokeColor=#000000;overflow=hidden;fillColor=#000000;top=0;left=0;bottom=0;right=0;pointerEvents=1;fontColor=#FFFFFF;" parent="JXNqIlLPApDgVnP79aCE-14" vertex="1">
          <mxGeometry x="217" width="31" height="28" as="geometry">
            <mxRectangle width="31" height="28" as="alternateBounds" />
          </mxGeometry>
        </mxCell>
        <mxCell id="JXNqIlLPApDgVnP79aCE-23" value="H" style="shape=partialRectangle;html=1;whiteSpace=wrap;connectable=0;strokeColor=#000000;overflow=hidden;fillColor=#000000;top=0;left=0;bottom=0;right=0;pointerEvents=1;fontColor=#FFFFFF;" parent="JXNqIlLPApDgVnP79aCE-14" vertex="1">
          <mxGeometry x="248" width="31" height="28" as="geometry">
            <mxRectangle width="31" height="28" as="alternateBounds" />
          </mxGeometry>
        </mxCell>
        <mxCell id="JXNqIlLPApDgVnP79aCE-24" value="I" style="shape=partialRectangle;html=1;whiteSpace=wrap;connectable=0;strokeColor=#000000;overflow=hidden;fillColor=#000000;top=0;left=0;bottom=0;right=0;pointerEvents=1;fontColor=#FFFFFF;" parent="JXNqIlLPApDgVnP79aCE-14" vertex="1">
          <mxGeometry x="279" width="31" height="28" as="geometry">
            <mxRectangle width="31" height="28" as="alternateBounds" />
          </mxGeometry>
        </mxCell>
        <mxCell id="JXNqIlLPApDgVnP79aCE-25" value="" style="shape=tableRow;horizontal=0;startSize=0;swimlaneHead=0;swimlaneBody=0;strokeColor=#000000;top=0;left=0;bottom=0;right=0;collapsible=0;dropTarget=0;fillColor=none;points=[[0,0.5],[1,0.5]];portConstraint=eastwest;" parent="JXNqIlLPApDgVnP79aCE-2" vertex="1">
          <mxGeometry y="56" width="310" height="27" as="geometry" />
        </mxCell>
        <mxCell id="JXNqIlLPApDgVnP79aCE-26" value="2016" style="shape=partialRectangle;html=1;whiteSpace=wrap;connectable=0;strokeColor=#000000;overflow=hidden;fillColor=#000000;top=0;left=0;bottom=0;right=0;pointerEvents=1;fontColor=#FFFFFF;" parent="JXNqIlLPApDgVnP79aCE-25" vertex="1">
          <mxGeometry width="31" height="27" as="geometry">
            <mxRectangle width="31" height="27" as="alternateBounds" />
          </mxGeometry>
        </mxCell>
        <mxCell id="JXNqIlLPApDgVnP79aCE-27" value="" style="shape=partialRectangle;html=1;whiteSpace=wrap;connectable=0;strokeColor=#000000;overflow=hidden;fillColor=#006600;top=0;left=0;bottom=0;right=0;pointerEvents=1;strokeWidth=3;perimeterSpacing=3;" parent="JXNqIlLPApDgVnP79aCE-25" vertex="1">
          <mxGeometry x="31" width="31" height="27" as="geometry">
            <mxRectangle width="31" height="27" as="alternateBounds" />
          </mxGeometry>
        </mxCell>
        <mxCell id="JXNqIlLPApDgVnP79aCE-28" value="" style="shape=partialRectangle;html=1;whiteSpace=wrap;connectable=0;strokeColor=#000000;overflow=hidden;fillColor=#006600;top=0;left=0;bottom=0;right=0;pointerEvents=1;strokeWidth=3;perimeterSpacing=3;" parent="JXNqIlLPApDgVnP79aCE-25" vertex="1">
          <mxGeometry x="62" width="31" height="27" as="geometry">
            <mxRectangle width="31" height="27" as="alternateBounds" />
          </mxGeometry>
        </mxCell>
        <mxCell id="JXNqIlLPApDgVnP79aCE-29" value="" style="shape=partialRectangle;html=1;whiteSpace=wrap;connectable=0;strokeColor=#000000;overflow=hidden;fillColor=#006600;top=0;left=0;bottom=0;right=0;pointerEvents=1;strokeWidth=3;perimeterSpacing=3;" parent="JXNqIlLPApDgVnP79aCE-25" vertex="1">
          <mxGeometry x="93" width="31" height="27" as="geometry">
            <mxRectangle width="31" height="27" as="alternateBounds" />
          </mxGeometry>
        </mxCell>
        <mxCell id="JXNqIlLPApDgVnP79aCE-30" value="" style="shape=partialRectangle;html=1;whiteSpace=wrap;connectable=0;strokeColor=#000000;overflow=hidden;fillColor=#472400;top=0;left=0;bottom=0;right=0;pointerEvents=1;strokeWidth=3;perimeterSpacing=3;" parent="JXNqIlLPApDgVnP79aCE-25" vertex="1">
          <mxGeometry x="124" width="31" height="27" as="geometry">
            <mxRectangle width="31" height="27" as="alternateBounds" />
          </mxGeometry>
        </mxCell>
        <mxCell id="JXNqIlLPApDgVnP79aCE-31" value="" style="shape=partialRectangle;html=1;whiteSpace=wrap;connectable=0;strokeColor=#000000;overflow=hidden;fillColor=#472400;top=0;left=0;bottom=0;right=0;pointerEvents=1;strokeWidth=3;perimeterSpacing=3;" parent="JXNqIlLPApDgVnP79aCE-25" vertex="1">
          <mxGeometry x="155" width="31" height="27" as="geometry">
            <mxRectangle width="31" height="27" as="alternateBounds" />
          </mxGeometry>
        </mxCell>
        <mxCell id="JXNqIlLPApDgVnP79aCE-32" value="" style="shape=partialRectangle;html=1;whiteSpace=wrap;connectable=0;strokeColor=#000000;overflow=hidden;fillColor=#006600;top=0;left=0;bottom=0;right=0;pointerEvents=1;strokeWidth=3;perimeterSpacing=3;" parent="JXNqIlLPApDgVnP79aCE-25" vertex="1">
          <mxGeometry x="186" width="31" height="27" as="geometry">
            <mxRectangle width="31" height="27" as="alternateBounds" />
          </mxGeometry>
        </mxCell>
        <mxCell id="JXNqIlLPApDgVnP79aCE-33" value="" style="shape=partialRectangle;html=1;whiteSpace=wrap;connectable=0;strokeColor=#000000;overflow=hidden;fillColor=#472400;top=0;left=0;bottom=0;right=0;pointerEvents=1;strokeWidth=3;perimeterSpacing=3;" parent="JXNqIlLPApDgVnP79aCE-25" vertex="1">
          <mxGeometry x="217" width="31" height="27" as="geometry">
            <mxRectangle width="31" height="27" as="alternateBounds" />
          </mxGeometry>
        </mxCell>
        <mxCell id="JXNqIlLPApDgVnP79aCE-34" value="" style="shape=partialRectangle;html=1;whiteSpace=wrap;connectable=0;strokeColor=#000000;overflow=hidden;fillColor=#472400;top=0;left=0;bottom=0;right=0;pointerEvents=1;strokeWidth=3;perimeterSpacing=3;" parent="JXNqIlLPApDgVnP79aCE-25" vertex="1">
          <mxGeometry x="248" width="31" height="27" as="geometry">
            <mxRectangle width="31" height="27" as="alternateBounds" />
          </mxGeometry>
        </mxCell>
        <mxCell id="JXNqIlLPApDgVnP79aCE-35" value="" style="shape=partialRectangle;html=1;whiteSpace=wrap;connectable=0;strokeColor=#000000;overflow=hidden;fillColor=#472400;top=0;left=0;bottom=0;right=0;pointerEvents=1;strokeWidth=3;perimeterSpacing=3;" parent="JXNqIlLPApDgVnP79aCE-25" vertex="1">
          <mxGeometry x="279" width="31" height="27" as="geometry">
            <mxRectangle width="31" height="27" as="alternateBounds" />
          </mxGeometry>
        </mxCell>
        <mxCell id="JXNqIlLPApDgVnP79aCE-36" value="" style="shape=tableRow;horizontal=0;startSize=0;swimlaneHead=0;swimlaneBody=0;strokeColor=#000000;top=0;left=0;bottom=0;right=0;collapsible=0;dropTarget=0;fillColor=none;points=[[0,0.5],[1,0.5]];portConstraint=eastwest;" parent="JXNqIlLPApDgVnP79aCE-2" vertex="1">
          <mxGeometry y="83" width="310" height="29" as="geometry" />
        </mxCell>
        <mxCell id="JXNqIlLPApDgVnP79aCE-37" value="2017" style="shape=partialRectangle;html=1;whiteSpace=wrap;connectable=0;strokeColor=#000000;overflow=hidden;fillColor=#000000;top=0;left=0;bottom=0;right=0;pointerEvents=1;fontColor=#FFFFFF;" parent="JXNqIlLPApDgVnP79aCE-36" vertex="1">
          <mxGeometry width="31" height="29" as="geometry">
            <mxRectangle width="31" height="29" as="alternateBounds" />
          </mxGeometry>
        </mxCell>
        <mxCell id="JXNqIlLPApDgVnP79aCE-38" value="" style="shape=partialRectangle;html=1;whiteSpace=wrap;connectable=0;strokeColor=#000000;overflow=hidden;fillColor=#006600;top=0;left=0;bottom=0;right=0;pointerEvents=1;strokeWidth=3;perimeterSpacing=3;" parent="JXNqIlLPApDgVnP79aCE-36" vertex="1">
          <mxGeometry x="31" width="31" height="29" as="geometry">
            <mxRectangle width="31" height="29" as="alternateBounds" />
          </mxGeometry>
        </mxCell>
        <mxCell id="JXNqIlLPApDgVnP79aCE-39" value="" style="shape=partialRectangle;html=1;whiteSpace=wrap;connectable=0;strokeColor=#000000;overflow=hidden;fillColor=#006600;top=0;left=0;bottom=0;right=0;pointerEvents=1;strokeWidth=3;perimeterSpacing=3;" parent="JXNqIlLPApDgVnP79aCE-36" vertex="1">
          <mxGeometry x="62" width="31" height="29" as="geometry">
            <mxRectangle width="31" height="29" as="alternateBounds" />
          </mxGeometry>
        </mxCell>
        <mxCell id="JXNqIlLPApDgVnP79aCE-40" value="" style="shape=partialRectangle;html=1;whiteSpace=wrap;connectable=0;strokeColor=#000000;overflow=hidden;fillColor=#006600;top=0;left=0;bottom=0;right=0;pointerEvents=1;strokeWidth=3;perimeterSpacing=3;" parent="JXNqIlLPApDgVnP79aCE-36" vertex="1">
          <mxGeometry x="93" width="31" height="29" as="geometry">
            <mxRectangle width="31" height="29" as="alternateBounds" />
          </mxGeometry>
        </mxCell>
        <mxCell id="JXNqIlLPApDgVnP79aCE-41" value="" style="shape=partialRectangle;html=1;whiteSpace=wrap;connectable=0;strokeColor=#000000;overflow=hidden;fillColor=#006600;top=0;left=0;bottom=0;right=0;pointerEvents=1;strokeWidth=3;perimeterSpacing=3;" parent="JXNqIlLPApDgVnP79aCE-36" vertex="1">
          <mxGeometry x="124" width="31" height="29" as="geometry">
            <mxRectangle width="31" height="29" as="alternateBounds" />
          </mxGeometry>
        </mxCell>
        <mxCell id="JXNqIlLPApDgVnP79aCE-42" value="" style="shape=partialRectangle;html=1;whiteSpace=wrap;connectable=0;strokeColor=#000000;overflow=hidden;fillColor=#472400;top=0;left=0;bottom=0;right=0;pointerEvents=1;strokeWidth=3;perimeterSpacing=3;" parent="JXNqIlLPApDgVnP79aCE-36" vertex="1">
          <mxGeometry x="155" width="31" height="29" as="geometry">
            <mxRectangle width="31" height="29" as="alternateBounds" />
          </mxGeometry>
        </mxCell>
        <mxCell id="JXNqIlLPApDgVnP79aCE-43" value="" style="shape=partialRectangle;html=1;whiteSpace=wrap;connectable=0;strokeColor=#000000;overflow=hidden;fillColor=#006600;top=0;left=0;bottom=0;right=0;pointerEvents=1;strokeWidth=3;perimeterSpacing=3;" parent="JXNqIlLPApDgVnP79aCE-36" vertex="1">
          <mxGeometry x="186" width="31" height="29" as="geometry">
            <mxRectangle width="31" height="29" as="alternateBounds" />
          </mxGeometry>
        </mxCell>
        <mxCell id="JXNqIlLPApDgVnP79aCE-44" value="" style="shape=partialRectangle;html=1;whiteSpace=wrap;connectable=0;strokeColor=#000000;overflow=hidden;fillColor=#472400;top=0;left=0;bottom=0;right=0;pointerEvents=1;strokeWidth=3;perimeterSpacing=3;" parent="JXNqIlLPApDgVnP79aCE-36" vertex="1">
          <mxGeometry x="217" width="31" height="29" as="geometry">
            <mxRectangle width="31" height="29" as="alternateBounds" />
          </mxGeometry>
        </mxCell>
        <mxCell id="JXNqIlLPApDgVnP79aCE-45" value="" style="shape=partialRectangle;html=1;whiteSpace=wrap;connectable=0;strokeColor=#000000;overflow=hidden;fillColor=#472400;top=0;left=0;bottom=0;right=0;pointerEvents=1;strokeWidth=3;perimeterSpacing=3;" parent="JXNqIlLPApDgVnP79aCE-36" vertex="1">
          <mxGeometry x="248" width="31" height="29" as="geometry">
            <mxRectangle width="31" height="29" as="alternateBounds" />
          </mxGeometry>
        </mxCell>
        <mxCell id="JXNqIlLPApDgVnP79aCE-46" value="" style="shape=partialRectangle;html=1;whiteSpace=wrap;connectable=0;strokeColor=#000000;overflow=hidden;fillColor=#472400;top=0;left=0;bottom=0;right=0;pointerEvents=1;strokeWidth=3;perimeterSpacing=3;" parent="JXNqIlLPApDgVnP79aCE-36" vertex="1">
          <mxGeometry x="279" width="31" height="29" as="geometry">
            <mxRectangle width="31" height="29" as="alternateBounds" />
          </mxGeometry>
        </mxCell>
        <mxCell id="JXNqIlLPApDgVnP79aCE-47" value="" style="shape=tableRow;horizontal=0;startSize=0;swimlaneHead=0;swimlaneBody=0;strokeColor=#000000;top=0;left=0;bottom=0;right=0;collapsible=0;dropTarget=0;fillColor=none;points=[[0,0.5],[1,0.5]];portConstraint=eastwest;" parent="JXNqIlLPApDgVnP79aCE-2" vertex="1">
          <mxGeometry y="112" width="310" height="27" as="geometry" />
        </mxCell>
        <mxCell id="JXNqIlLPApDgVnP79aCE-48" value="2018" style="shape=partialRectangle;html=1;whiteSpace=wrap;connectable=0;strokeColor=#000000;overflow=hidden;fillColor=#000000;top=0;left=0;bottom=0;right=0;pointerEvents=1;fontColor=#FFFFFF;" parent="JXNqIlLPApDgVnP79aCE-47" vertex="1">
          <mxGeometry width="31" height="27" as="geometry">
            <mxRectangle width="31" height="27" as="alternateBounds" />
          </mxGeometry>
        </mxCell>
        <mxCell id="JXNqIlLPApDgVnP79aCE-49" value="" style="shape=partialRectangle;html=1;whiteSpace=wrap;connectable=0;strokeColor=#000000;overflow=hidden;fillColor=#006600;top=0;left=0;bottom=0;right=0;pointerEvents=1;strokeWidth=3;perimeterSpacing=3;" parent="JXNqIlLPApDgVnP79aCE-47" vertex="1">
          <mxGeometry x="31" width="31" height="27" as="geometry">
            <mxRectangle width="31" height="27" as="alternateBounds" />
          </mxGeometry>
        </mxCell>
        <mxCell id="JXNqIlLPApDgVnP79aCE-50" value="" style="shape=partialRectangle;html=1;whiteSpace=wrap;connectable=0;strokeColor=#000000;overflow=hidden;fillColor=#006600;top=0;left=0;bottom=0;right=0;pointerEvents=1;strokeWidth=3;perimeterSpacing=3;" parent="JXNqIlLPApDgVnP79aCE-47" vertex="1">
          <mxGeometry x="62" width="31" height="27" as="geometry">
            <mxRectangle width="31" height="27" as="alternateBounds" />
          </mxGeometry>
        </mxCell>
        <mxCell id="JXNqIlLPApDgVnP79aCE-51" value="" style="shape=partialRectangle;html=1;whiteSpace=wrap;connectable=0;strokeColor=#000000;overflow=hidden;fillColor=#006600;top=0;left=0;bottom=0;right=0;pointerEvents=1;strokeWidth=3;perimeterSpacing=3;" parent="JXNqIlLPApDgVnP79aCE-47" vertex="1">
          <mxGeometry x="93" width="31" height="27" as="geometry">
            <mxRectangle width="31" height="27" as="alternateBounds" />
          </mxGeometry>
        </mxCell>
        <mxCell id="JXNqIlLPApDgVnP79aCE-52" value="" style="shape=partialRectangle;html=1;whiteSpace=wrap;connectable=0;strokeColor=#000000;overflow=hidden;fillColor=#006600;top=0;left=0;bottom=0;right=0;pointerEvents=1;strokeWidth=3;perimeterSpacing=3;" parent="JXNqIlLPApDgVnP79aCE-47" vertex="1">
          <mxGeometry x="124" width="31" height="27" as="geometry">
            <mxRectangle width="31" height="27" as="alternateBounds" />
          </mxGeometry>
        </mxCell>
        <mxCell id="JXNqIlLPApDgVnP79aCE-53" value="" style="shape=partialRectangle;html=1;whiteSpace=wrap;connectable=0;strokeColor=#000000;overflow=hidden;fillColor=#472400;top=0;left=0;bottom=0;right=0;pointerEvents=1;strokeWidth=3;perimeterSpacing=3;" parent="JXNqIlLPApDgVnP79aCE-47" vertex="1">
          <mxGeometry x="155" width="31" height="27" as="geometry">
            <mxRectangle width="31" height="27" as="alternateBounds" />
          </mxGeometry>
        </mxCell>
        <mxCell id="JXNqIlLPApDgVnP79aCE-54" value="" style="shape=partialRectangle;html=1;whiteSpace=wrap;connectable=0;strokeColor=#000000;overflow=hidden;fillColor=#006600;top=0;left=0;bottom=0;right=0;pointerEvents=1;strokeWidth=3;perimeterSpacing=3;" parent="JXNqIlLPApDgVnP79aCE-47" vertex="1">
          <mxGeometry x="186" width="31" height="27" as="geometry">
            <mxRectangle width="31" height="27" as="alternateBounds" />
          </mxGeometry>
        </mxCell>
        <mxCell id="JXNqIlLPApDgVnP79aCE-55" value="" style="shape=partialRectangle;html=1;whiteSpace=wrap;connectable=0;strokeColor=#000000;overflow=hidden;fillColor=#472400;top=0;left=0;bottom=0;right=0;pointerEvents=1;strokeWidth=3;perimeterSpacing=3;" parent="JXNqIlLPApDgVnP79aCE-47" vertex="1">
          <mxGeometry x="217" width="31" height="27" as="geometry">
            <mxRectangle width="31" height="27" as="alternateBounds" />
          </mxGeometry>
        </mxCell>
        <mxCell id="JXNqIlLPApDgVnP79aCE-56" value="" style="shape=partialRectangle;html=1;whiteSpace=wrap;connectable=0;strokeColor=#000000;overflow=hidden;fillColor=#472400;top=0;left=0;bottom=0;right=0;pointerEvents=1;strokeWidth=3;perimeterSpacing=3;" parent="JXNqIlLPApDgVnP79aCE-47" vertex="1">
          <mxGeometry x="248" width="31" height="27" as="geometry">
            <mxRectangle width="31" height="27" as="alternateBounds" />
          </mxGeometry>
        </mxCell>
        <mxCell id="JXNqIlLPApDgVnP79aCE-57" value="" style="shape=partialRectangle;html=1;whiteSpace=wrap;connectable=0;strokeColor=#000000;overflow=hidden;fillColor=#472400;top=0;left=0;bottom=0;right=0;pointerEvents=1;strokeWidth=3;perimeterSpacing=3;" parent="JXNqIlLPApDgVnP79aCE-47" vertex="1">
          <mxGeometry x="279" width="31" height="27" as="geometry">
            <mxRectangle width="31" height="27" as="alternateBounds" />
          </mxGeometry>
        </mxCell>
        <mxCell id="JXNqIlLPApDgVnP79aCE-58" value="" style="shape=tableRow;horizontal=0;startSize=0;swimlaneHead=0;swimlaneBody=0;strokeColor=#000000;top=0;left=0;bottom=0;right=0;collapsible=0;dropTarget=0;fillColor=none;points=[[0,0.5],[1,0.5]];portConstraint=eastwest;" parent="JXNqIlLPApDgVnP79aCE-2" vertex="1">
          <mxGeometry y="139" width="310" height="28" as="geometry" />
        </mxCell>
        <mxCell id="JXNqIlLPApDgVnP79aCE-59" value="2019" style="shape=partialRectangle;html=1;whiteSpace=wrap;connectable=0;strokeColor=#000000;overflow=hidden;fillColor=#000000;top=0;left=0;bottom=0;right=0;pointerEvents=1;fontColor=#FFFFFF;" parent="JXNqIlLPApDgVnP79aCE-58" vertex="1">
          <mxGeometry width="31" height="28" as="geometry">
            <mxRectangle width="31" height="28" as="alternateBounds" />
          </mxGeometry>
        </mxCell>
        <mxCell id="JXNqIlLPApDgVnP79aCE-60" value="" style="shape=partialRectangle;html=1;whiteSpace=wrap;connectable=0;strokeColor=#000000;overflow=hidden;fillColor=#006600;top=0;left=0;bottom=0;right=0;pointerEvents=1;strokeWidth=3;perimeterSpacing=3;" parent="JXNqIlLPApDgVnP79aCE-58" vertex="1">
          <mxGeometry x="31" width="31" height="28" as="geometry">
            <mxRectangle width="31" height="28" as="alternateBounds" />
          </mxGeometry>
        </mxCell>
        <mxCell id="JXNqIlLPApDgVnP79aCE-61" value="" style="shape=partialRectangle;html=1;whiteSpace=wrap;connectable=0;strokeColor=#000000;overflow=hidden;fillColor=#006600;top=0;left=0;bottom=0;right=0;pointerEvents=1;strokeWidth=3;perimeterSpacing=3;" parent="JXNqIlLPApDgVnP79aCE-58" vertex="1">
          <mxGeometry x="62" width="31" height="28" as="geometry">
            <mxRectangle width="31" height="28" as="alternateBounds" />
          </mxGeometry>
        </mxCell>
        <mxCell id="JXNqIlLPApDgVnP79aCE-62" value="" style="shape=partialRectangle;html=1;whiteSpace=wrap;connectable=0;strokeColor=#000000;overflow=hidden;fillColor=#006600;top=0;left=0;bottom=0;right=0;pointerEvents=1;strokeWidth=3;perimeterSpacing=3;" parent="JXNqIlLPApDgVnP79aCE-58" vertex="1">
          <mxGeometry x="93" width="31" height="28" as="geometry">
            <mxRectangle width="31" height="28" as="alternateBounds" />
          </mxGeometry>
        </mxCell>
        <mxCell id="JXNqIlLPApDgVnP79aCE-63" value="" style="shape=partialRectangle;html=1;whiteSpace=wrap;connectable=0;strokeColor=#000000;overflow=hidden;fillColor=#006600;top=0;left=0;bottom=0;right=0;pointerEvents=1;strokeWidth=3;perimeterSpacing=3;" parent="JXNqIlLPApDgVnP79aCE-58" vertex="1">
          <mxGeometry x="124" width="31" height="28" as="geometry">
            <mxRectangle width="31" height="28" as="alternateBounds" />
          </mxGeometry>
        </mxCell>
        <mxCell id="JXNqIlLPApDgVnP79aCE-64" value="" style="shape=partialRectangle;html=1;whiteSpace=wrap;connectable=0;strokeColor=#000000;overflow=hidden;fillColor=#006600;top=0;left=0;bottom=0;right=0;pointerEvents=1;strokeWidth=3;perimeterSpacing=3;" parent="JXNqIlLPApDgVnP79aCE-58" vertex="1">
          <mxGeometry x="155" width="31" height="28" as="geometry">
            <mxRectangle width="31" height="28" as="alternateBounds" />
          </mxGeometry>
        </mxCell>
        <mxCell id="JXNqIlLPApDgVnP79aCE-65" value="" style="shape=partialRectangle;html=1;whiteSpace=wrap;connectable=0;strokeColor=#000000;overflow=hidden;fillColor=#472400;top=0;left=0;bottom=0;right=0;pointerEvents=1;strokeWidth=3;perimeterSpacing=3;" parent="JXNqIlLPApDgVnP79aCE-58" vertex="1">
          <mxGeometry x="186" width="31" height="28" as="geometry">
            <mxRectangle width="31" height="28" as="alternateBounds" />
          </mxGeometry>
        </mxCell>
        <mxCell id="JXNqIlLPApDgVnP79aCE-66" value="" style="shape=partialRectangle;html=1;whiteSpace=wrap;connectable=0;strokeColor=#000000;overflow=hidden;fillColor=#472400;top=0;left=0;bottom=0;right=0;pointerEvents=1;strokeWidth=3;perimeterSpacing=3;" parent="JXNqIlLPApDgVnP79aCE-58" vertex="1">
          <mxGeometry x="217" width="31" height="28" as="geometry">
            <mxRectangle width="31" height="28" as="alternateBounds" />
          </mxGeometry>
        </mxCell>
        <mxCell id="JXNqIlLPApDgVnP79aCE-67" value="" style="shape=partialRectangle;html=1;whiteSpace=wrap;connectable=0;strokeColor=#000000;overflow=hidden;fillColor=#472400;top=0;left=0;bottom=0;right=0;pointerEvents=1;strokeWidth=3;perimeterSpacing=3;" parent="JXNqIlLPApDgVnP79aCE-58" vertex="1">
          <mxGeometry x="248" width="31" height="28" as="geometry">
            <mxRectangle width="31" height="28" as="alternateBounds" />
          </mxGeometry>
        </mxCell>
        <mxCell id="JXNqIlLPApDgVnP79aCE-68" value="" style="shape=partialRectangle;html=1;whiteSpace=wrap;connectable=0;strokeColor=#000000;overflow=hidden;fillColor=#472400;top=0;left=0;bottom=0;right=0;pointerEvents=1;strokeWidth=3;perimeterSpacing=3;" parent="JXNqIlLPApDgVnP79aCE-58" vertex="1">
          <mxGeometry x="279" width="31" height="28" as="geometry">
            <mxRectangle width="31" height="28" as="alternateBounds" />
          </mxGeometry>
        </mxCell>
        <mxCell id="JXNqIlLPApDgVnP79aCE-69" value="" style="shape=tableRow;horizontal=0;startSize=0;swimlaneHead=0;swimlaneBody=0;strokeColor=#000000;top=0;left=0;bottom=0;right=0;collapsible=0;dropTarget=0;fillColor=none;points=[[0,0.5],[1,0.5]];portConstraint=eastwest;" parent="JXNqIlLPApDgVnP79aCE-2" vertex="1">
          <mxGeometry y="167" width="310" height="27" as="geometry" />
        </mxCell>
        <mxCell id="JXNqIlLPApDgVnP79aCE-70" value="2020" style="shape=partialRectangle;html=1;whiteSpace=wrap;connectable=0;strokeColor=#000000;overflow=hidden;fillColor=#000000;top=0;left=0;bottom=0;right=0;pointerEvents=1;fontColor=#FFFFFF;" parent="JXNqIlLPApDgVnP79aCE-69" vertex="1">
          <mxGeometry width="31" height="27" as="geometry">
            <mxRectangle width="31" height="27" as="alternateBounds" />
          </mxGeometry>
        </mxCell>
        <mxCell id="JXNqIlLPApDgVnP79aCE-71" value="" style="shape=partialRectangle;html=1;whiteSpace=wrap;connectable=0;strokeColor=#000000;overflow=hidden;fillColor=#006600;top=0;left=0;bottom=0;right=0;pointerEvents=1;strokeWidth=3;perimeterSpacing=3;" parent="JXNqIlLPApDgVnP79aCE-69" vertex="1">
          <mxGeometry x="31" width="31" height="27" as="geometry">
            <mxRectangle width="31" height="27" as="alternateBounds" />
          </mxGeometry>
        </mxCell>
        <mxCell id="JXNqIlLPApDgVnP79aCE-72" value="" style="shape=partialRectangle;html=1;whiteSpace=wrap;connectable=0;strokeColor=#000000;overflow=hidden;fillColor=#006600;top=0;left=0;bottom=0;right=0;pointerEvents=1;strokeWidth=3;perimeterSpacing=3;" parent="JXNqIlLPApDgVnP79aCE-69" vertex="1">
          <mxGeometry x="62" width="31" height="27" as="geometry">
            <mxRectangle width="31" height="27" as="alternateBounds" />
          </mxGeometry>
        </mxCell>
        <mxCell id="JXNqIlLPApDgVnP79aCE-73" value="" style="shape=partialRectangle;html=1;whiteSpace=wrap;connectable=0;strokeColor=#000000;overflow=hidden;fillColor=#006600;top=0;left=0;bottom=0;right=0;pointerEvents=1;strokeWidth=3;perimeterSpacing=3;" parent="JXNqIlLPApDgVnP79aCE-69" vertex="1">
          <mxGeometry x="93" width="31" height="27" as="geometry">
            <mxRectangle width="31" height="27" as="alternateBounds" />
          </mxGeometry>
        </mxCell>
        <mxCell id="JXNqIlLPApDgVnP79aCE-74" value="" style="shape=partialRectangle;html=1;whiteSpace=wrap;connectable=0;strokeColor=#000000;overflow=hidden;fillColor=#006600;top=0;left=0;bottom=0;right=0;pointerEvents=1;strokeWidth=3;perimeterSpacing=3;" parent="JXNqIlLPApDgVnP79aCE-69" vertex="1">
          <mxGeometry x="124" width="31" height="27" as="geometry">
            <mxRectangle width="31" height="27" as="alternateBounds" />
          </mxGeometry>
        </mxCell>
        <mxCell id="JXNqIlLPApDgVnP79aCE-75" value="" style="shape=partialRectangle;html=1;whiteSpace=wrap;connectable=0;strokeColor=#000000;overflow=hidden;fillColor=#006600;top=0;left=0;bottom=0;right=0;pointerEvents=1;strokeWidth=3;perimeterSpacing=3;" parent="JXNqIlLPApDgVnP79aCE-69" vertex="1">
          <mxGeometry x="155" width="31" height="27" as="geometry">
            <mxRectangle width="31" height="27" as="alternateBounds" />
          </mxGeometry>
        </mxCell>
        <mxCell id="JXNqIlLPApDgVnP79aCE-76" value="" style="shape=partialRectangle;html=1;whiteSpace=wrap;connectable=0;strokeColor=#000000;overflow=hidden;fillColor=#472400;top=0;left=0;bottom=0;right=0;pointerEvents=1;strokeWidth=3;perimeterSpacing=3;" parent="JXNqIlLPApDgVnP79aCE-69" vertex="1">
          <mxGeometry x="186" width="31" height="27" as="geometry">
            <mxRectangle width="31" height="27" as="alternateBounds" />
          </mxGeometry>
        </mxCell>
        <mxCell id="JXNqIlLPApDgVnP79aCE-77" value="" style="shape=partialRectangle;html=1;whiteSpace=wrap;connectable=0;strokeColor=#000000;overflow=hidden;fillColor=#472400;top=0;left=0;bottom=0;right=0;pointerEvents=1;strokeWidth=3;perimeterSpacing=3;" parent="JXNqIlLPApDgVnP79aCE-69" vertex="1">
          <mxGeometry x="217" width="31" height="27" as="geometry">
            <mxRectangle width="31" height="27" as="alternateBounds" />
          </mxGeometry>
        </mxCell>
        <mxCell id="JXNqIlLPApDgVnP79aCE-78" value="" style="shape=partialRectangle;html=1;whiteSpace=wrap;connectable=0;strokeColor=#000000;overflow=hidden;fillColor=#472400;top=0;left=0;bottom=0;right=0;pointerEvents=1;strokeWidth=3;perimeterSpacing=3;" parent="JXNqIlLPApDgVnP79aCE-69" vertex="1">
          <mxGeometry x="248" width="31" height="27" as="geometry">
            <mxRectangle width="31" height="27" as="alternateBounds" />
          </mxGeometry>
        </mxCell>
        <mxCell id="JXNqIlLPApDgVnP79aCE-79" value="" style="shape=partialRectangle;html=1;whiteSpace=wrap;connectable=0;strokeColor=#000000;overflow=hidden;fillColor=#472400;top=0;left=0;bottom=0;right=0;pointerEvents=1;strokeWidth=3;perimeterSpacing=3;" parent="JXNqIlLPApDgVnP79aCE-69" vertex="1">
          <mxGeometry x="279" width="31" height="27" as="geometry">
            <mxRectangle width="31" height="27" as="alternateBounds" />
          </mxGeometry>
        </mxCell>
        <mxCell id="JXNqIlLPApDgVnP79aCE-80" value="" style="shape=tableRow;horizontal=0;startSize=0;swimlaneHead=0;swimlaneBody=0;strokeColor=#000000;top=0;left=0;bottom=0;right=0;collapsible=0;dropTarget=0;fillColor=none;points=[[0,0.5],[1,0.5]];portConstraint=eastwest;" parent="JXNqIlLPApDgVnP79aCE-2" vertex="1">
          <mxGeometry y="194" width="310" height="30" as="geometry" />
        </mxCell>
        <mxCell id="JXNqIlLPApDgVnP79aCE-81" value="2021" style="shape=partialRectangle;html=1;whiteSpace=wrap;connectable=0;strokeColor=#000000;overflow=hidden;fillColor=#000000;top=0;left=0;bottom=0;right=0;pointerEvents=1;fontColor=#FFFFFF;" parent="JXNqIlLPApDgVnP79aCE-80" vertex="1">
          <mxGeometry width="31" height="30" as="geometry">
            <mxRectangle width="31" height="30" as="alternateBounds" />
          </mxGeometry>
        </mxCell>
        <mxCell id="JXNqIlLPApDgVnP79aCE-82" value="" style="shape=partialRectangle;html=1;whiteSpace=wrap;connectable=0;strokeColor=#000000;overflow=hidden;fillColor=#006600;top=0;left=0;bottom=0;right=0;pointerEvents=1;strokeWidth=3;perimeterSpacing=3;" parent="JXNqIlLPApDgVnP79aCE-80" vertex="1">
          <mxGeometry x="31" width="31" height="30" as="geometry">
            <mxRectangle width="31" height="30" as="alternateBounds" />
          </mxGeometry>
        </mxCell>
        <mxCell id="JXNqIlLPApDgVnP79aCE-83" value="" style="shape=partialRectangle;html=1;whiteSpace=wrap;connectable=0;strokeColor=#000000;overflow=hidden;fillColor=#006600;top=0;left=0;bottom=0;right=0;pointerEvents=1;strokeWidth=3;perimeterSpacing=3;" parent="JXNqIlLPApDgVnP79aCE-80" vertex="1">
          <mxGeometry x="62" width="31" height="30" as="geometry">
            <mxRectangle width="31" height="30" as="alternateBounds" />
          </mxGeometry>
        </mxCell>
        <mxCell id="JXNqIlLPApDgVnP79aCE-84" value="" style="shape=partialRectangle;html=1;whiteSpace=wrap;connectable=0;strokeColor=#000000;overflow=hidden;fillColor=#006600;top=0;left=0;bottom=0;right=0;pointerEvents=1;strokeWidth=3;perimeterSpacing=3;" parent="JXNqIlLPApDgVnP79aCE-80" vertex="1">
          <mxGeometry x="93" width="31" height="30" as="geometry">
            <mxRectangle width="31" height="30" as="alternateBounds" />
          </mxGeometry>
        </mxCell>
        <mxCell id="JXNqIlLPApDgVnP79aCE-85" value="" style="shape=partialRectangle;html=1;whiteSpace=wrap;connectable=0;strokeColor=#000000;overflow=hidden;fillColor=#006600;top=0;left=0;bottom=0;right=0;pointerEvents=1;strokeWidth=3;perimeterSpacing=3;" parent="JXNqIlLPApDgVnP79aCE-80" vertex="1">
          <mxGeometry x="124" width="31" height="30" as="geometry">
            <mxRectangle width="31" height="30" as="alternateBounds" />
          </mxGeometry>
        </mxCell>
        <mxCell id="JXNqIlLPApDgVnP79aCE-86" value="" style="shape=partialRectangle;html=1;whiteSpace=wrap;connectable=0;strokeColor=#000000;overflow=hidden;fillColor=#006600;top=0;left=0;bottom=0;right=0;pointerEvents=1;strokeWidth=3;perimeterSpacing=3;" parent="JXNqIlLPApDgVnP79aCE-80" vertex="1">
          <mxGeometry x="155" width="31" height="30" as="geometry">
            <mxRectangle width="31" height="30" as="alternateBounds" />
          </mxGeometry>
        </mxCell>
        <mxCell id="JXNqIlLPApDgVnP79aCE-87" value="" style="shape=partialRectangle;html=1;whiteSpace=wrap;connectable=0;strokeColor=#000000;overflow=hidden;fillColor=#006600;top=0;left=0;bottom=0;right=0;pointerEvents=1;strokeWidth=3;perimeterSpacing=3;" parent="JXNqIlLPApDgVnP79aCE-80" vertex="1">
          <mxGeometry x="186" width="31" height="30" as="geometry">
            <mxRectangle width="31" height="30" as="alternateBounds" />
          </mxGeometry>
        </mxCell>
        <mxCell id="JXNqIlLPApDgVnP79aCE-88" value="" style="shape=partialRectangle;html=1;whiteSpace=wrap;connectable=0;strokeColor=#000000;overflow=hidden;fillColor=#472400;top=0;left=0;bottom=0;right=0;pointerEvents=1;strokeWidth=3;perimeterSpacing=3;" parent="JXNqIlLPApDgVnP79aCE-80" vertex="1">
          <mxGeometry x="217" width="31" height="30" as="geometry">
            <mxRectangle width="31" height="30" as="alternateBounds" />
          </mxGeometry>
        </mxCell>
        <mxCell id="JXNqIlLPApDgVnP79aCE-89" value="" style="shape=partialRectangle;html=1;whiteSpace=wrap;connectable=0;strokeColor=#000000;overflow=hidden;fillColor=#472400;top=0;left=0;bottom=0;right=0;pointerEvents=1;strokeWidth=3;perimeterSpacing=3;" parent="JXNqIlLPApDgVnP79aCE-80" vertex="1">
          <mxGeometry x="248" width="31" height="30" as="geometry">
            <mxRectangle width="31" height="30" as="alternateBounds" />
          </mxGeometry>
        </mxCell>
        <mxCell id="JXNqIlLPApDgVnP79aCE-90" value="" style="shape=partialRectangle;html=1;whiteSpace=wrap;connectable=0;strokeColor=#000000;overflow=hidden;fillColor=#472400;top=0;left=0;bottom=0;right=0;pointerEvents=1;strokeWidth=3;perimeterSpacing=3;" parent="JXNqIlLPApDgVnP79aCE-80" vertex="1">
          <mxGeometry x="279" width="31" height="30" as="geometry">
            <mxRectangle width="31" height="30" as="alternateBounds" />
          </mxGeometry>
        </mxCell>
        <mxCell id="JXNqIlLPApDgVnP79aCE-91" value="" style="shape=tableRow;horizontal=0;startSize=0;swimlaneHead=0;swimlaneBody=0;strokeColor=#000000;top=0;left=0;bottom=0;right=0;collapsible=0;dropTarget=0;fillColor=none;points=[[0,0.5],[1,0.5]];portConstraint=eastwest;" parent="JXNqIlLPApDgVnP79aCE-2" vertex="1">
          <mxGeometry y="224" width="310" height="26" as="geometry" />
        </mxCell>
        <mxCell id="JXNqIlLPApDgVnP79aCE-92" value="2022" style="shape=partialRectangle;html=1;whiteSpace=wrap;connectable=0;strokeColor=#000000;overflow=hidden;fillColor=#000000;top=0;left=0;bottom=0;right=0;pointerEvents=1;fontColor=#FFFFFF;" parent="JXNqIlLPApDgVnP79aCE-91" vertex="1">
          <mxGeometry width="31" height="26" as="geometry">
            <mxRectangle width="31" height="26" as="alternateBounds" />
          </mxGeometry>
        </mxCell>
        <mxCell id="JXNqIlLPApDgVnP79aCE-93" value="" style="shape=partialRectangle;html=1;whiteSpace=wrap;connectable=0;strokeColor=#000000;overflow=hidden;fillColor=#006600;top=0;left=0;bottom=0;right=0;pointerEvents=1;strokeWidth=3;perimeterSpacing=3;" parent="JXNqIlLPApDgVnP79aCE-91" vertex="1">
          <mxGeometry x="31" width="31" height="26" as="geometry">
            <mxRectangle width="31" height="26" as="alternateBounds" />
          </mxGeometry>
        </mxCell>
        <mxCell id="JXNqIlLPApDgVnP79aCE-94" value="" style="shape=partialRectangle;html=1;whiteSpace=wrap;connectable=0;strokeColor=#000000;overflow=hidden;fillColor=#006600;top=0;left=0;bottom=0;right=0;pointerEvents=1;strokeWidth=3;perimeterSpacing=3;" parent="JXNqIlLPApDgVnP79aCE-91" vertex="1">
          <mxGeometry x="62" width="31" height="26" as="geometry">
            <mxRectangle width="31" height="26" as="alternateBounds" />
          </mxGeometry>
        </mxCell>
        <mxCell id="JXNqIlLPApDgVnP79aCE-95" value="" style="shape=partialRectangle;html=1;whiteSpace=wrap;connectable=0;strokeColor=#000000;overflow=hidden;fillColor=#006600;top=0;left=0;bottom=0;right=0;pointerEvents=1;strokeWidth=3;perimeterSpacing=3;" parent="JXNqIlLPApDgVnP79aCE-91" vertex="1">
          <mxGeometry x="93" width="31" height="26" as="geometry">
            <mxRectangle width="31" height="26" as="alternateBounds" />
          </mxGeometry>
        </mxCell>
        <mxCell id="JXNqIlLPApDgVnP79aCE-96" value="" style="shape=partialRectangle;html=1;whiteSpace=wrap;connectable=0;strokeColor=#000000;overflow=hidden;fillColor=#006600;top=0;left=0;bottom=0;right=0;pointerEvents=1;strokeWidth=3;perimeterSpacing=3;" parent="JXNqIlLPApDgVnP79aCE-91" vertex="1">
          <mxGeometry x="124" width="31" height="26" as="geometry">
            <mxRectangle width="31" height="26" as="alternateBounds" />
          </mxGeometry>
        </mxCell>
        <mxCell id="JXNqIlLPApDgVnP79aCE-97" value="" style="shape=partialRectangle;html=1;whiteSpace=wrap;connectable=0;strokeColor=#000000;overflow=hidden;fillColor=#006600;top=0;left=0;bottom=0;right=0;pointerEvents=1;strokeWidth=3;perimeterSpacing=3;" parent="JXNqIlLPApDgVnP79aCE-91" vertex="1">
          <mxGeometry x="155" width="31" height="26" as="geometry">
            <mxRectangle width="31" height="26" as="alternateBounds" />
          </mxGeometry>
        </mxCell>
        <mxCell id="JXNqIlLPApDgVnP79aCE-98" value="" style="shape=partialRectangle;html=1;whiteSpace=wrap;connectable=0;strokeColor=#000000;overflow=hidden;fillColor=#006600;top=0;left=0;bottom=0;right=0;pointerEvents=1;strokeWidth=3;perimeterSpacing=3;" parent="JXNqIlLPApDgVnP79aCE-91" vertex="1">
          <mxGeometry x="186" width="31" height="26" as="geometry">
            <mxRectangle width="31" height="26" as="alternateBounds" />
          </mxGeometry>
        </mxCell>
        <mxCell id="JXNqIlLPApDgVnP79aCE-99" value="" style="shape=partialRectangle;html=1;whiteSpace=wrap;connectable=0;strokeColor=#000000;overflow=hidden;fillColor=#472400;top=0;left=0;bottom=0;right=0;pointerEvents=1;strokeWidth=3;perimeterSpacing=3;" parent="JXNqIlLPApDgVnP79aCE-91" vertex="1">
          <mxGeometry x="217" width="31" height="26" as="geometry">
            <mxRectangle width="31" height="26" as="alternateBounds" />
          </mxGeometry>
        </mxCell>
        <mxCell id="JXNqIlLPApDgVnP79aCE-100" value="" style="shape=partialRectangle;html=1;whiteSpace=wrap;connectable=0;strokeColor=#000000;overflow=hidden;fillColor=#472400;top=0;left=0;bottom=0;right=0;pointerEvents=1;strokeWidth=3;perimeterSpacing=3;" parent="JXNqIlLPApDgVnP79aCE-91" vertex="1">
          <mxGeometry x="248" width="31" height="26" as="geometry">
            <mxRectangle width="31" height="26" as="alternateBounds" />
          </mxGeometry>
        </mxCell>
        <mxCell id="JXNqIlLPApDgVnP79aCE-101" value="" style="shape=partialRectangle;html=1;whiteSpace=wrap;connectable=0;strokeColor=#000000;overflow=hidden;fillColor=#472400;top=0;left=0;bottom=0;right=0;pointerEvents=1;strokeWidth=3;perimeterSpacing=3;" parent="JXNqIlLPApDgVnP79aCE-91" vertex="1">
          <mxGeometry x="279" width="31" height="26" as="geometry">
            <mxRectangle width="31" height="26" as="alternateBounds" />
          </mxGeometry>
        </mxCell>
        <mxCell id="qnqZUr-sNbvN4e3bvCut-12" style="shape=tableRow;horizontal=0;startSize=0;swimlaneHead=0;swimlaneBody=0;strokeColor=#000000;top=0;left=0;bottom=0;right=0;collapsible=0;dropTarget=0;fillColor=none;points=[[0,0.5],[1,0.5]];portConstraint=eastwest;" parent="JXNqIlLPApDgVnP79aCE-2" vertex="1">
          <mxGeometry y="250" width="310" height="20" as="geometry" />
        </mxCell>
        <mxCell id="qnqZUr-sNbvN4e3bvCut-13" style="shape=partialRectangle;html=1;whiteSpace=wrap;connectable=0;strokeColor=#000000;overflow=hidden;fillColor=#000000;top=0;left=0;bottom=0;right=0;pointerEvents=1;fontColor=#FFFFFF;" parent="qnqZUr-sNbvN4e3bvCut-12" vertex="1">
          <mxGeometry width="31" height="20" as="geometry">
            <mxRectangle width="31" height="20" as="alternateBounds" />
          </mxGeometry>
        </mxCell>
        <mxCell id="qnqZUr-sNbvN4e3bvCut-14" style="shape=partialRectangle;html=1;whiteSpace=wrap;connectable=0;strokeColor=#000000;overflow=hidden;fillColor=#000000;top=0;left=0;bottom=0;right=0;pointerEvents=1;strokeWidth=3;perimeterSpacing=3;" parent="qnqZUr-sNbvN4e3bvCut-12" vertex="1">
          <mxGeometry x="31" width="31" height="20" as="geometry">
            <mxRectangle width="31" height="20" as="alternateBounds" />
          </mxGeometry>
        </mxCell>
        <mxCell id="qnqZUr-sNbvN4e3bvCut-15" style="shape=partialRectangle;html=1;whiteSpace=wrap;connectable=0;strokeColor=#000000;overflow=hidden;fillColor=#000000;top=0;left=0;bottom=0;right=0;pointerEvents=1;strokeWidth=3;perimeterSpacing=3;" parent="qnqZUr-sNbvN4e3bvCut-12" vertex="1">
          <mxGeometry x="62" width="31" height="20" as="geometry">
            <mxRectangle width="31" height="20" as="alternateBounds" />
          </mxGeometry>
        </mxCell>
        <mxCell id="qnqZUr-sNbvN4e3bvCut-16" style="shape=partialRectangle;html=1;whiteSpace=wrap;connectable=0;strokeColor=#000000;overflow=hidden;fillColor=#000000;top=0;left=0;bottom=0;right=0;pointerEvents=1;strokeWidth=3;perimeterSpacing=3;" parent="qnqZUr-sNbvN4e3bvCut-12" vertex="1">
          <mxGeometry x="93" width="31" height="20" as="geometry">
            <mxRectangle width="31" height="20" as="alternateBounds" />
          </mxGeometry>
        </mxCell>
        <mxCell id="qnqZUr-sNbvN4e3bvCut-17" style="shape=partialRectangle;html=1;whiteSpace=wrap;connectable=0;strokeColor=#000000;overflow=hidden;fillColor=#000000;top=0;left=0;bottom=0;right=0;pointerEvents=1;strokeWidth=3;perimeterSpacing=3;" parent="qnqZUr-sNbvN4e3bvCut-12" vertex="1">
          <mxGeometry x="124" width="31" height="20" as="geometry">
            <mxRectangle width="31" height="20" as="alternateBounds" />
          </mxGeometry>
        </mxCell>
        <mxCell id="qnqZUr-sNbvN4e3bvCut-18" style="shape=partialRectangle;html=1;whiteSpace=wrap;connectable=0;strokeColor=#000000;overflow=hidden;fillColor=#000000;top=0;left=0;bottom=0;right=0;pointerEvents=1;strokeWidth=3;perimeterSpacing=3;" parent="qnqZUr-sNbvN4e3bvCut-12" vertex="1">
          <mxGeometry x="155" width="31" height="20" as="geometry">
            <mxRectangle width="31" height="20" as="alternateBounds" />
          </mxGeometry>
        </mxCell>
        <mxCell id="qnqZUr-sNbvN4e3bvCut-19" style="shape=partialRectangle;html=1;whiteSpace=wrap;connectable=0;strokeColor=#000000;overflow=hidden;fillColor=#000000;top=0;left=0;bottom=0;right=0;pointerEvents=1;strokeWidth=3;perimeterSpacing=3;" parent="qnqZUr-sNbvN4e3bvCut-12" vertex="1">
          <mxGeometry x="186" width="31" height="20" as="geometry">
            <mxRectangle width="31" height="20" as="alternateBounds" />
          </mxGeometry>
        </mxCell>
        <mxCell id="qnqZUr-sNbvN4e3bvCut-20" style="shape=partialRectangle;html=1;whiteSpace=wrap;connectable=0;strokeColor=#000000;overflow=hidden;fillColor=#000000;top=0;left=0;bottom=0;right=0;pointerEvents=1;strokeWidth=3;perimeterSpacing=3;" parent="qnqZUr-sNbvN4e3bvCut-12" vertex="1">
          <mxGeometry x="217" width="31" height="20" as="geometry">
            <mxRectangle width="31" height="20" as="alternateBounds" />
          </mxGeometry>
        </mxCell>
        <mxCell id="qnqZUr-sNbvN4e3bvCut-21" style="shape=partialRectangle;html=1;whiteSpace=wrap;connectable=0;strokeColor=#000000;overflow=hidden;fillColor=#000000;top=0;left=0;bottom=0;right=0;pointerEvents=1;strokeWidth=3;perimeterSpacing=3;" parent="qnqZUr-sNbvN4e3bvCut-12" vertex="1">
          <mxGeometry x="248" width="31" height="20" as="geometry">
            <mxRectangle width="31" height="20" as="alternateBounds" />
          </mxGeometry>
        </mxCell>
        <mxCell id="qnqZUr-sNbvN4e3bvCut-22" style="shape=partialRectangle;html=1;whiteSpace=wrap;connectable=0;strokeColor=#000000;overflow=hidden;fillColor=#000000;top=0;left=0;bottom=0;right=0;pointerEvents=1;strokeWidth=3;perimeterSpacing=3;" parent="qnqZUr-sNbvN4e3bvCut-12" vertex="1">
          <mxGeometry x="279" width="31" height="20" as="geometry">
            <mxRectangle width="31" height="20" as="alternateBounds" />
          </mxGeometry>
        </mxCell>
        <mxCell id="qnqZUr-sNbvN4e3bvCut-1" style="shape=tableRow;horizontal=0;startSize=0;swimlaneHead=0;swimlaneBody=0;strokeColor=#000000;top=0;left=0;bottom=0;right=0;collapsible=0;dropTarget=0;fillColor=none;points=[[0,0.5],[1,0.5]];portConstraint=eastwest;" parent="JXNqIlLPApDgVnP79aCE-2" vertex="1">
          <mxGeometry y="270" width="310" height="20" as="geometry" />
        </mxCell>
        <mxCell id="qnqZUr-sNbvN4e3bvCut-2" style="shape=partialRectangle;html=1;whiteSpace=wrap;connectable=0;strokeColor=#000000;overflow=hidden;fillColor=#000000;top=0;left=0;bottom=0;right=0;pointerEvents=1;fontColor=#FFFFFF;" parent="qnqZUr-sNbvN4e3bvCut-1" vertex="1">
          <mxGeometry width="31" height="20" as="geometry">
            <mxRectangle width="31" height="20" as="alternateBounds" />
          </mxGeometry>
        </mxCell>
        <mxCell id="qnqZUr-sNbvN4e3bvCut-3" style="shape=partialRectangle;html=1;whiteSpace=wrap;connectable=0;strokeColor=#000000;overflow=hidden;fillColor=#472400;top=0;left=0;bottom=0;right=0;pointerEvents=1;strokeWidth=3;perimeterSpacing=9;labelBorderColor=default;labelBackgroundColor=#000000;spacingTop=5;spacing=5;" parent="qnqZUr-sNbvN4e3bvCut-1" vertex="1">
          <mxGeometry x="31" width="31" height="20" as="geometry">
            <mxRectangle width="31" height="20" as="alternateBounds" />
          </mxGeometry>
        </mxCell>
        <mxCell id="qnqZUr-sNbvN4e3bvCut-4" value="Missing data filled by estimation" style="shape=partialRectangle;html=1;whiteSpace=wrap;connectable=0;strokeColor=#000000;overflow=hidden;fillColor=#000000;top=0;left=0;bottom=0;right=0;pointerEvents=1;strokeWidth=3;perimeterSpacing=3;fontColor=#FFFFFF;rowspan=1;colspan=7;" parent="qnqZUr-sNbvN4e3bvCut-1" vertex="1">
          <mxGeometry x="62" width="217" height="20" as="geometry">
            <mxRectangle width="31" height="20" as="alternateBounds" />
          </mxGeometry>
        </mxCell>
        <mxCell id="qnqZUr-sNbvN4e3bvCut-5" style="shape=partialRectangle;html=1;whiteSpace=wrap;connectable=0;strokeColor=#000000;overflow=hidden;fillColor=#000000;top=0;left=0;bottom=0;right=0;pointerEvents=1;strokeWidth=3;perimeterSpacing=3;fontColor=#000000;" parent="qnqZUr-sNbvN4e3bvCut-1" vertex="1" visible="0">
          <mxGeometry x="93" width="31" height="20" as="geometry">
            <mxRectangle width="31" height="20" as="alternateBounds" />
          </mxGeometry>
        </mxCell>
        <mxCell id="qnqZUr-sNbvN4e3bvCut-6" style="shape=partialRectangle;html=1;whiteSpace=wrap;connectable=0;strokeColor=#000000;overflow=hidden;fillColor=#000000;top=0;left=0;bottom=0;right=0;pointerEvents=1;strokeWidth=3;perimeterSpacing=3;fontColor=#000000;" parent="qnqZUr-sNbvN4e3bvCut-1" vertex="1" visible="0">
          <mxGeometry x="124" width="31" height="20" as="geometry">
            <mxRectangle width="31" height="20" as="alternateBounds" />
          </mxGeometry>
        </mxCell>
        <mxCell id="qnqZUr-sNbvN4e3bvCut-7" style="shape=partialRectangle;html=1;whiteSpace=wrap;connectable=0;strokeColor=#000000;overflow=hidden;fillColor=#000000;top=0;left=0;bottom=0;right=0;pointerEvents=1;strokeWidth=3;perimeterSpacing=3;" parent="qnqZUr-sNbvN4e3bvCut-1" vertex="1" visible="0">
          <mxGeometry x="155" width="31" height="20" as="geometry">
            <mxRectangle width="31" height="20" as="alternateBounds" />
          </mxGeometry>
        </mxCell>
        <mxCell id="qnqZUr-sNbvN4e3bvCut-8" value="" style="shape=partialRectangle;html=1;whiteSpace=wrap;connectable=0;strokeColor=#000000;overflow=hidden;fillColor=#000000;top=0;left=0;bottom=0;right=0;pointerEvents=1;strokeWidth=3;perimeterSpacing=3;" parent="qnqZUr-sNbvN4e3bvCut-1" vertex="1" visible="0">
          <mxGeometry x="186" width="31" height="20" as="geometry">
            <mxRectangle width="31" height="20" as="alternateBounds" />
          </mxGeometry>
        </mxCell>
        <mxCell id="qnqZUr-sNbvN4e3bvCut-9" value="" style="shape=partialRectangle;html=1;whiteSpace=wrap;connectable=0;strokeColor=#000000;overflow=hidden;fillColor=#000000;top=0;left=0;bottom=0;right=0;pointerEvents=1;strokeWidth=3;perimeterSpacing=3;" parent="qnqZUr-sNbvN4e3bvCut-1" vertex="1" visible="0">
          <mxGeometry x="217" width="31" height="20" as="geometry">
            <mxRectangle width="31" height="20" as="alternateBounds" />
          </mxGeometry>
        </mxCell>
        <mxCell id="qnqZUr-sNbvN4e3bvCut-10" style="shape=partialRectangle;html=1;whiteSpace=wrap;connectable=0;strokeColor=#000000;overflow=hidden;fillColor=#000000;top=0;left=0;bottom=0;right=0;pointerEvents=1;strokeWidth=3;perimeterSpacing=3;" parent="qnqZUr-sNbvN4e3bvCut-1" vertex="1" visible="0">
          <mxGeometry x="248" width="31" height="20" as="geometry">
            <mxRectangle width="31" height="20" as="alternateBounds" />
          </mxGeometry>
        </mxCell>
        <mxCell id="qnqZUr-sNbvN4e3bvCut-11" style="shape=partialRectangle;html=1;whiteSpace=wrap;connectable=0;strokeColor=#000000;overflow=hidden;fillColor=#000000;top=0;left=0;bottom=0;right=0;pointerEvents=1;strokeWidth=3;perimeterSpacing=3;" parent="qnqZUr-sNbvN4e3bvCut-1" vertex="1">
          <mxGeometry x="279" width="31" height="20" as="geometry">
            <mxRectangle width="31" height="20" as="alternateBounds" />
          </mxGeometry>
        </mxCell>
        <mxCell id="qnqZUr-sNbvN4e3bvCut-34" style="shape=tableRow;horizontal=0;startSize=0;swimlaneHead=0;swimlaneBody=0;strokeColor=#000000;top=0;left=0;bottom=0;right=0;collapsible=0;dropTarget=0;fillColor=none;points=[[0,0.5],[1,0.5]];portConstraint=eastwest;" parent="JXNqIlLPApDgVnP79aCE-2" vertex="1">
          <mxGeometry y="290" width="310" height="20" as="geometry" />
        </mxCell>
        <mxCell id="qnqZUr-sNbvN4e3bvCut-35" style="shape=partialRectangle;html=1;whiteSpace=wrap;connectable=0;strokeColor=#000000;overflow=hidden;fillColor=#000000;top=0;left=0;bottom=0;right=0;pointerEvents=1;fontColor=#FFFFFF;" parent="qnqZUr-sNbvN4e3bvCut-34" vertex="1">
          <mxGeometry width="31" height="20" as="geometry">
            <mxRectangle width="31" height="20" as="alternateBounds" />
          </mxGeometry>
        </mxCell>
        <mxCell id="qnqZUr-sNbvN4e3bvCut-36" style="shape=partialRectangle;html=1;whiteSpace=wrap;connectable=0;strokeColor=#000000;overflow=hidden;fillColor=#000000;top=0;left=0;bottom=0;right=0;pointerEvents=1;strokeWidth=3;perimeterSpacing=9;labelBorderColor=default;" parent="qnqZUr-sNbvN4e3bvCut-34" vertex="1">
          <mxGeometry x="31" width="31" height="20" as="geometry">
            <mxRectangle width="31" height="20" as="alternateBounds" />
          </mxGeometry>
        </mxCell>
        <mxCell id="qnqZUr-sNbvN4e3bvCut-37" style="shape=partialRectangle;html=1;whiteSpace=wrap;connectable=0;strokeColor=#000000;overflow=hidden;fillColor=#000000;top=0;left=0;bottom=0;right=0;pointerEvents=1;strokeWidth=3;perimeterSpacing=3;fontColor=#FFFFFF;" parent="qnqZUr-sNbvN4e3bvCut-34" vertex="1">
          <mxGeometry x="62" width="31" height="20" as="geometry">
            <mxRectangle width="31" height="20" as="alternateBounds" />
          </mxGeometry>
        </mxCell>
        <mxCell id="qnqZUr-sNbvN4e3bvCut-38" style="shape=partialRectangle;html=1;whiteSpace=wrap;connectable=0;strokeColor=#000000;overflow=hidden;fillColor=#000000;top=0;left=0;bottom=0;right=0;pointerEvents=1;strokeWidth=3;perimeterSpacing=3;" parent="qnqZUr-sNbvN4e3bvCut-34" vertex="1">
          <mxGeometry x="93" width="31" height="20" as="geometry">
            <mxRectangle width="31" height="20" as="alternateBounds" />
          </mxGeometry>
        </mxCell>
        <mxCell id="qnqZUr-sNbvN4e3bvCut-39" style="shape=partialRectangle;html=1;whiteSpace=wrap;connectable=0;strokeColor=#000000;overflow=hidden;fillColor=#000000;top=0;left=0;bottom=0;right=0;pointerEvents=1;strokeWidth=3;perimeterSpacing=3;" parent="qnqZUr-sNbvN4e3bvCut-34" vertex="1">
          <mxGeometry x="124" width="31" height="20" as="geometry">
            <mxRectangle width="31" height="20" as="alternateBounds" />
          </mxGeometry>
        </mxCell>
        <mxCell id="qnqZUr-sNbvN4e3bvCut-40" style="shape=partialRectangle;html=1;whiteSpace=wrap;connectable=0;strokeColor=#000000;overflow=hidden;fillColor=#000000;top=0;left=0;bottom=0;right=0;pointerEvents=1;strokeWidth=3;perimeterSpacing=3;" parent="qnqZUr-sNbvN4e3bvCut-34" vertex="1">
          <mxGeometry x="155" width="31" height="20" as="geometry">
            <mxRectangle width="31" height="20" as="alternateBounds" />
          </mxGeometry>
        </mxCell>
        <mxCell id="qnqZUr-sNbvN4e3bvCut-41" style="shape=partialRectangle;html=1;whiteSpace=wrap;connectable=0;strokeColor=#000000;overflow=hidden;fillColor=#000000;top=0;left=0;bottom=0;right=0;pointerEvents=1;strokeWidth=3;perimeterSpacing=3;" parent="qnqZUr-sNbvN4e3bvCut-34" vertex="1">
          <mxGeometry x="186" width="31" height="20" as="geometry">
            <mxRectangle width="31" height="20" as="alternateBounds" />
          </mxGeometry>
        </mxCell>
        <mxCell id="qnqZUr-sNbvN4e3bvCut-42" style="shape=partialRectangle;html=1;whiteSpace=wrap;connectable=0;strokeColor=#000000;overflow=hidden;fillColor=#000000;top=0;left=0;bottom=0;right=0;pointerEvents=1;strokeWidth=3;perimeterSpacing=3;" parent="qnqZUr-sNbvN4e3bvCut-34" vertex="1">
          <mxGeometry x="217" width="31" height="20" as="geometry">
            <mxRectangle width="31" height="20" as="alternateBounds" />
          </mxGeometry>
        </mxCell>
        <mxCell id="qnqZUr-sNbvN4e3bvCut-43" style="shape=partialRectangle;html=1;whiteSpace=wrap;connectable=0;strokeColor=#000000;overflow=hidden;fillColor=#000000;top=0;left=0;bottom=0;right=0;pointerEvents=1;strokeWidth=3;perimeterSpacing=3;" parent="qnqZUr-sNbvN4e3bvCut-34" vertex="1">
          <mxGeometry x="248" width="31" height="20" as="geometry">
            <mxRectangle width="31" height="20" as="alternateBounds" />
          </mxGeometry>
        </mxCell>
        <mxCell id="qnqZUr-sNbvN4e3bvCut-44" style="shape=partialRectangle;html=1;whiteSpace=wrap;connectable=0;strokeColor=#000000;overflow=hidden;fillColor=#000000;top=0;left=0;bottom=0;right=0;pointerEvents=1;strokeWidth=3;perimeterSpacing=3;" parent="qnqZUr-sNbvN4e3bvCut-34" vertex="1">
          <mxGeometry x="279" width="31" height="20" as="geometry">
            <mxRectangle width="31" height="20" as="alternateBounds" />
          </mxGeometry>
        </mxCell>
      </root>
    </mxGraphModel>
  </diagram>
</mxfile>
